<?xml version="1.0" encoding="utf-8" ?>
<svg xmlns="http://www.w3.org/2000/svg" xmlns:xlink="http://www.w3.org/1999/xlink" width="512" height="512">
	<defs>
		<linearGradient id="gradient_0" gradientUnits="userSpaceOnUse" x1="22.257256" y1="276.57431" x2="489.40359" y2="230.95297">
			<stop offset="0" stop-color="#0501FF"/>
			<stop offset="1" stop-color="#F400F9"/>
		</linearGradient>
	</defs>
	<path fill="url(#gradient_0)" d="M172.713 35.3323C174.575 34.2886 176.867 33.6025 178.869 32.8489C205.743 22.7348 237.233 17.3105 266 18.978L288.232 21.3465C336.709 27.5261 389.993 56.9271 423.122 91.5929C463.923 134.286 490.641 193.3 490.78 252.722C490.827 273.323 488.526 291.664 482.875 311.684L475.832 332.986C467.472 356.575 451.266 383.094 435.374 402.775C408.444 436.126 370.278 461.677 329.926 476.01L324 478.021C323.477 478.187 322.503 478.634 322.003 478.612C305.724 484.68 279.69 489.099 261.667 489.053C261.187 489.021 260.159 489.138 259.625 489.139L255.071 489.159C189.943 489.405 126.887 459.62 83.4787 411.271C45.0764 368.498 21.4978 312.269 21.2861 254.556L21.508 238.905C25.2011 174.347 62.3197 108.387 113.541 68.8503L144.143 48.4368C153 43.4417 163.016 38.5605 172.713 35.3323ZM161.412 55.8542L152.19 60.6201C99.5222 89.3433 60.0567 139.726 43.658 197.331L36.2329 237.2C35.2702 243.17 35.744 249.774 35.7525 255.819C35.8338 313.389 61.9256 369.617 102.332 410.07C144.929 452.715 208.233 478.921 268.492 474.782C271.227 474.216 274.176 474.273 276.951 473.939L296.53 470.816C307.035 468.679 317.721 465.791 327.75 462.006C332.378 460.259 336.867 457.891 341.502 456.271L341.96 456.115C343.938 454.972 346.061 454.09 348.105 453.073L357.608 448.154C428.632 410.402 476.261 333.549 476.25 252.917L476.136 240.025C472.454 172.689 430.868 106.14 374.642 69.7768C367.356 65.0643 359.709 61.0972 351.977 57.1796L335.062 48.9655C316.618 41.0553 297.065 36.6564 277.202 34.2093L245.187 33.414C213.204 34.6022 189.791 43.6462 161.412 55.8542Z"/>
	<defs>
		<linearGradient id="gradient_1" gradientUnits="userSpaceOnUse" x1="60.09808" y1="287.75562" x2="451.33438" y2="219.85527">
			<stop offset="0" stop-color="#0402FE"/>
			<stop offset="1" stop-color="#EF00FC"/>
		</linearGradient>
	</defs>
	<path fill="url(#gradient_1)" d="M236.751 56.7765C250.149 54.4893 268.229 55.5439 281.555 57.3463C317.153 61.7511 355.269 79.4381 382.875 102.755C426.935 139.969 454.28 196.54 454.279 254.312C454.279 265.596 453.751 276.728 451.562 287.829C440.441 344.219 406.003 392.63 357.227 422.433C355.18 423.684 353.017 425.183 350.824 426.126C335.108 436.378 310.435 444.214 292.546 448.469L286.002 449.808C285.288 449.93 284.219 450.255 283.514 450.151C280.545 450.952 277.163 451.199 274.103 451.522L251.985 452.573C235.436 452.558 221.79 450.105 205.75 445.496C156.976 431.483 117.819 402.711 90.0991 360.602C71.527 332.39 59.1337 299.577 57.3932 265.62L57.2439 252.873C57.3193 164.302 121.37 86.0327 205.875 62.3793C215.779 59.6072 226.462 57.3001 236.751 56.7765ZM231.436 71.6919C192.707 77.8524 156.426 95.9285 128.302 123.398C67.4081 182.875 53.1493 274.028 98.9472 347.772L106.398 358.602C143.984 411.526 212.923 447.128 278.082 436.724L284.36 435.64L306.267 429.792C320.524 425.421 334.334 419.937 346.978 411.936L349.5 410.255C358.273 404.366 367.39 398.469 375.357 391.509C410.501 360.809 437.308 312.065 440.087 264.793L440.265 252.297C440.3 214.559 426.226 181.087 405.42 150.264C379.63 112.055 333.989 81.5216 288.337 72.8406L278.828 71.2772L265.038 69.9102C253.783 69.3201 242.574 70.1082 231.436 71.6919Z"/>
	<path fill="#3001FF" d="M255.253 84.7783C261.816 84.193 263.114 89.8949 263.152 94.8303L263.173 104.25C263.205 111.39 265.937 123.75 256.775 126.224C253.58 126.49 250.173 124.057 249.23 121.057L249.141 120.75C248.634 119.064 248.735 117.355 248.733 115.614L248.805 96.7407C248.87 90.552 248.443 86.7362 255.253 84.7783Z"/>
	<path fill="#3001FF" d="M173.001 106.785C180.2 107.083 184.66 118.061 187.981 123.25C192.089 129.669 201.61 139.578 189.485 143.913C182.408 144.372 179.546 136.855 176.25 131.793L169.885 121.744C166.548 115.919 164.483 108.677 173.001 106.785Z"/>
	<path fill="#9300FF" d="M338.068 106.801C344.455 106.477 347.126 113.538 344.151 118.468L338.736 126.508C334.807 132.474 331.661 141.323 324.058 143.219C316.589 143.705 315.07 135.677 318.408 130.248C320.589 126.701 323.407 123.54 325.718 120.064C328.216 116.307 330.265 110.425 334.359 108.086L334.671 107.915C335.783 107.295 336.837 107.058 338.068 106.801Z"/>
	<path fill="#3001FF" d="M321.753 363.543C328.992 362.142 335.085 375.932 338.641 381.119C342.806 387.195 351.214 395.09 339.639 400.739C332.346 402.089 327.017 389.547 323.872 384.729C319.751 378.412 309.731 368.146 321.753 363.543Z"/>
	<path fill="#3001FF" d="M187.105 363.261C191.305 363.086 194.755 365.036 195.72 369.408L195.791 369.75C196.892 374.843 191.445 379.877 188.971 383.792C185.198 389.763 182.078 398.51 175.155 401.538C170.882 401.622 165.314 396.347 166.515 391.984C167.17 389.606 168.834 387.237 170.189 385.21L178.625 373.287C181.285 369.328 182.763 365.622 187.105 363.261Z"/>
	<path fill="#9300FF" d="M369.437 312.838C375.949 313.528 379.712 317.414 385.225 320.46C390.51 323.379 401.077 325.949 402.73 332.658L402.81 333C403.122 334.305 403.246 336.243 402.663 337.481L402.526 337.75C401.369 340.088 399.596 341.181 397.298 342.203C393.362 342.614 387.964 338.415 384.678 336.583L373.301 329.734C369.524 327.28 365.226 324.832 363.558 320.421C363.881 316.394 365.303 313.695 369.437 312.838Z"/>
	<path fill="#3001FF" d="M139.551 312.762C143.888 312.613 146.263 314.888 147.357 319.117C148.567 323.79 143.368 327.218 140.058 329.41L129.983 335.547C125.683 338.042 121.768 340.823 116.89 342.085C113.078 341.899 110.146 339.391 108.957 335.753C106.682 328.795 121.036 323.608 126.25 320.511C130.667 317.888 134.58 314.266 139.551 312.762Z"/>
	<path fill="#3001FF" d="M114.065 165.01C117.767 164.868 121.743 167.659 124.75 169.48L133.783 175.019C137.135 177.071 141.035 178.945 144.018 181.495C149.173 185.901 148.196 191.882 142.11 194.295C136.356 195.561 131.797 191.282 127.188 188.511C122.439 185.657 117.363 183.114 113.012 179.663C107.451 175.255 107.449 168.156 114.065 165.01Z"/>
	<path fill="#3001FF" d="M254.297 380.555C258.081 379.989 263.195 382.638 263.364 386.875L263.262 410.18C263.3 412.73 263.772 416.124 262.883 418.54L262.533 419.463C261.615 421.602 259.871 422.596 257.824 423.402C251.069 423.93 248.296 420.837 248.288 414.765L248.825 390.622C248.881 388.982 248.801 386.788 249.373 385.239L249.468 385C250.386 382.644 252.127 381.611 254.297 380.555Z"/>
	<path fill="#C800FF" d="M396.759 165.075C401.587 164.612 406.251 172.348 403.435 175.976C402.26 177.489 400.239 178.613 398.645 179.633L386.731 186.563C381.85 189.295 376.708 193.067 371.059 193.933C366.821 194.426 364.552 190.676 363.608 187.083C364.902 181.705 370.194 179.261 374.633 176.684L383.07 171.75C387.472 169.205 391.682 166.09 396.759 165.075Z"/>
	<path fill="#C800FF" d="M390.769 246.354C394.027 246.215 421.126 245.985 422.032 246.522C422.859 247.011 424.138 249.661 424.455 250.622L424.827 251.775C426.99 259.624 419.822 260.769 414.418 260.821L397.687 260.784C393.697 260.774 389.409 261.096 385.514 260.188C377.587 258.339 377.781 248.583 383.954 247.055C386.114 246.521 388.546 246.517 390.769 246.354Z"/>
	<path fill="#3001FF" d="M91.9125 246.37L110.804 246.311C115.566 246.289 120.705 245.888 125.424 246.297C133.132 246.966 134.636 258.177 125.985 261.254C122.637 261.919 118.566 261.256 115.113 261.252L100.887 261.25C97.7073 261.248 93.5532 261.922 90.6087 260.452L90.25 260.265C84.9822 257.567 85.0339 248.849 90.7964 246.728L91.9125 246.37Z"/>
	<path fill="#3001FF" d="M254.337 142.289L255.876 142.184C264.257 142.261 263.178 151.607 263.195 157.307L263.108 230.325C265.299 231.283 267.572 231.725 269.742 232.841C277.762 236.967 279.089 245.659 279.945 246.227C282.568 247.967 329.799 244.01 333.643 247.805L333.875 248.051C334.829 249.053 335.484 250.141 335.955 251.442L336.063 251.75C337.1 254.611 336.53 257.691 334.046 259.561L333.75 259.78C330.814 262.012 321.173 260.84 317.55 260.837L291.281 260.898L281.033 261.244C279.867 263.077 279.712 266.325 277.46 269.754C258.946 297.942 218.914 272.339 232.012 243.516C235.239 236.417 241.656 232.533 248.686 229.885L248.734 159.565C248.72 152.948 246.841 145.369 254.337 142.289ZM254.421 243.591C241.434 245.296 240.195 263.63 253.375 267.004L253.689 267.086C254.879 267.373 256.206 267.284 257.425 267.279C264.1 265.668 268.48 259.169 266.819 252.375L266.734 252.006C265.328 246.19 260.111 243.224 254.432 243.582L254.421 243.591Z"/>
</svg>
